<?xml version="1.0" encoding="utf-8"?>
<!-- Generator: Adobe Illustrator 15.0.0, SVG Export Plug-In . SVG Version: 6.00 Build 0)  -->
<!DOCTYPE svg PUBLIC "-//W3C//DTD SVG 1.1//EN" "http://www.w3.org/Graphics/SVG/1.1/DTD/svg11.dtd">
<svg version="1.1" id="Layer_1" xmlns="http://www.w3.org/2000/svg" xmlns:xlink="http://www.w3.org/1999/xlink" x="0px" y="0px"
	 width="48px" height="48px" viewBox="0 0 48 48" enable-background="new 0 0 48 48" xml:space="preserve">
<circle fill="none" stroke="#FFFFFF" stroke-width="2.4" cx="24" cy="24" r="19"/>
<path id="adl" fill="#FFFFFF" d="M24,14.52c-1.845,0-3.001,1.308-3.001,3.078c0,0.437,0.052,0.771,0.206,1.128
	c0.282,0.693,0.231,1.488-0.281,2.385l-0.95,1.644c-0.514,0.899-1.181,1.361-1.926,1.464c-1.617,0.206-2.618,1.41-2.618,3.106
	c0,1.719,1.411,3.029,3.083,3.029c1.075,0,2.077-0.591,2.641-1.515c0.23-0.359,0.692-0.616,1.308-0.616h3.077
	c0.615,0,1.078,0.257,1.309,0.616c0.564,0.924,1.565,1.515,2.641,1.515c1.671,0,3.082-1.311,3.082-3.029c0-1.696-1-2.9-2.617-3.106
	c-0.746-0.103-1.412-0.564-1.926-1.464l-0.951-1.644c-0.512-0.897-0.562-1.692-0.281-2.385c0.155-0.358,0.206-0.691,0.206-1.128
	C27.001,15.828,25.845,14.52,24,14.52z M22.667,26.322c-0.976,0-1.283-0.179-1.491-0.512c-0.203-0.335-0.152-0.847,0.235-1.539
	l1.433-2.544c0.386-0.689,0.797-0.997,1.181-0.997s0.795,0.308,1.181,0.997l1.434,2.544c0.387,0.692,0.437,1.203,0.234,1.539
	c-0.208,0.334-0.515,0.512-1.49,0.512H22.667z M30.954,27.274c0,0.796-0.667,1.435-1.467,1.435c-0.794,0-1.434-0.641-1.434-1.435
	c0-0.796,0.64-1.438,1.434-1.438C30.287,25.837,30.954,26.479,30.954,27.274z"/>
</svg>
