<?xml version="1.0" encoding="utf-8"?>
<!-- Generator: Adobe Illustrator 15.0.0, SVG Export Plug-In . SVG Version: 6.00 Build 0)  -->
<!DOCTYPE svg PUBLIC "-//W3C//DTD SVG 1.1//EN" "http://www.w3.org/Graphics/SVG/1.1/DTD/svg11.dtd">
<svg version="1.1" id="Layer_1" xmlns="http://www.w3.org/2000/svg" xmlns:xlink="http://www.w3.org/1999/xlink" x="0px" y="0px"
	 width="100px" height="100px" viewBox="0 0 100 100" enable-background="new 0 0 100 100" xml:space="preserve">
<path opacity="0.1" fill="#231F20" enable-background="new" d="M50,100C22.43,100,0,77.571,0,50C0,22.43,22.43,0,50,0
	c27.571,0,50,22.43,50,50C100,77.571,77.571,100,50,100z M50,5.941C25.706,5.941,5.941,25.706,5.941,50
	c0,24.295,19.766,44.059,44.059,44.059c24.295,0,44.059-19.764,44.059-44.059C94.059,25.706,74.295,5.941,50,5.941z M50,26.535
	c-4.567,0-7.428,3.238-7.428,7.619c0,1.082,0.127,1.909,0.51,2.792c0.697,1.715,0.572,3.683-0.696,5.903l-2.351,4.069
	c-1.272,2.225-2.923,3.37-4.768,3.623c-4.001,0.511-6.479,3.49-6.479,7.69c0,4.253,3.491,7.495,7.631,7.495
	c2.66,0,5.14-1.46,6.536-3.749c0.57-0.885,1.714-1.523,3.238-1.523h7.616c1.522,0,2.669,0.639,3.239,1.523
	c1.397,2.291,3.874,3.749,6.535,3.749c4.138,0,7.628-3.243,7.628-7.495c0-4.2-2.476-7.18-6.476-7.69
	c-1.848-0.254-3.496-1.395-4.768-3.623l-2.354-4.069c-1.269-2.22-1.391-4.188-0.695-5.903c0.386-0.886,0.51-1.71,0.51-2.792
	C57.428,29.773,54.568,26.535,50,26.535z M46.701,55.748c-2.417,0-3.176-0.444-3.691-1.268c-0.501-0.832-0.375-2.097,0.583-3.812
	l3.547-6.296c0.955-1.705,1.973-2.468,2.922-2.468c0.952,0,1.97,0.763,2.923,2.468l3.551,6.296c0.957,1.713,1.079,2.979,0.578,3.812
	c-0.517,0.827-1.274,1.268-3.688,1.268H46.701z M67.213,58.103c0,1.972-1.651,3.552-3.633,3.552c-1.962,0-3.547-1.586-3.547-3.552
	c0-1.967,1.586-3.559,3.547-3.559C65.562,54.547,67.213,56.134,67.213,58.103z"/>
</svg>
